<svg version="1.2" xmlns="http://www.w3.org/2000/svg" viewBox="0 0 2048 2048" width="2048" height="2048">
	<style>
		.s0 { fill: #ffffff } 
	</style>
	<path id="Path 0" fill-rule="evenodd" class="s0" d="m472 666.17c11.82-0.09 26.68 0.32 33 0.9 6.32 0.59 18.02 2.17 26 3.52 7.98 1.34 19.9 3.8 26.5 5.47 6.6 1.66 18.75 5.3 27 8.08 8.25 2.78 21.08 7.74 28.5 11.03 7.42 3.29 18.9 8.93 25.5 12.54 6.6 3.6 18.3 10.72 26 15.81 7.7 5.1 17.83 12.27 22.5 15.94 4.67 3.68 13.63 11.26 19.91 16.86 6.27 5.6 15.73 14.91 21.01 20.68 5.28 5.78 12.35 13.88 15.7 18 3.35 4.13 9.01 11.55 12.58 16.5 3.57 4.95 9.74 14.17 13.71 20.5 3.96 6.33 10.52 18.03 14.57 26 4.05 7.98 7.84 15.74 9.52 20l-16.5-0.02-4.13-8.74c-2.27-4.81-6.72-13.24-9.89-18.74-3.16-5.5-9.26-15.17-13.55-21.5-4.29-6.33-11.72-16.45-16.53-22.5-4.8-6.05-16.42-18.65-25.82-28-9.39-9.35-22.25-21.01-28.58-25.92-6.33-4.9-17.58-12.91-25-17.8-7.42-4.89-19.35-11.89-26.5-15.56-7.15-3.66-16.38-8.17-20.5-10.01-4.13-1.84-12.11-5.12-17.75-7.28-5.64-2.16-14.86-5.3-20.5-6.97-5.64-1.67-14.98-4.13-20.75-5.46-5.77-1.33-15.9-3.3-22.5-4.38-6.6-1.08-18.75-2.51-27-3.19-9.13-0.74-22.43-0.99-34-0.63-10.45 0.32-24.4 1.29-31 2.16-6.6 0.87-17.85 2.75-25 4.17-7.15 1.43-18.85 4.31-26 6.4-7.15 2.09-17.73 5.58-23.5 7.76-5.77 2.18-15.23 6.07-21 8.65-5.77 2.57-15.45 7.39-21.5 10.7-6.05 3.32-17.3 10.22-25 15.35-7.7 5.13-18.94 13.3-24.97 18.17-6.03 4.86-16.1 13.79-22.39 19.84-6.28 6.05-15.49 15.73-20.48 21.5-4.98 5.78-12.89 15.67-17.59 22-4.69 6.33-11.87 16.9-15.96 23.5-4.09 6.6-10.46 18.08-14.15 25.5-3.7 7.42-8.53 17.78-10.75 23-2.22 5.23-5.82 14.67-8.01 21-2.19 6.33-5.78 18.7-7.99 27.5-2.21 8.8-4.94 21.85-6.08 29-1.13 7.15-2.53 17.73-3.1 23.5-0.57 5.78-1.04 20.63-1.04 33 0 12.38 0.47 27.22 1.04 33 0.57 5.78 1.98 16.35 3.12 23.5 1.14 7.15 3.56 19.08 5.38 26.5 1.83 7.42 4.75 18 6.5 23.5 1.75 5.5 5.21 15.17 7.68 21.5 2.47 6.33 7.97 18.47 12.22 27 4.26 8.53 11.08 20.9 15.17 27.5 4.09 6.6 11.28 17.17 15.97 23.5 4.7 6.33 12.61 16.22 17.59 22 4.97 5.78 14.4 15.62 20.94 21.88 6.55 6.26 16.63 15.19 22.4 19.85 5.77 4.65 16.8 12.65 24.5 17.77 7.7 5.13 18.73 11.92 24.5 15.09 5.77 3.18 15.9 8.2 22.5 11.17 6.6 2.96 17.4 7.33 24 9.7 6.6 2.38 16.95 5.72 23 7.41 6.05 1.7 16.4 4.19 23 5.52 6.6 1.34 17.85 3.24 25 4.23 9.9 1.36 19.56 1.79 40.5 1.79 20.54 0.01 30.66-0.43 40-1.72 6.88-0.95 17.23-2.65 23-3.77 5.77-1.13 15.67-3.43 22-5.11 6.33-1.67 16.45-4.75 22.5-6.84 6.05-2.09 16.4-6.11 23-8.93 6.6-2.83 17.06-7.82 23.25-11.09 6.19-3.27 15.19-8.38 20-11.35 4.81-2.97 12.35-7.97 16.75-11.12 4.4-3.14 12.27-9.12 17.5-13.29 5.23-4.17 15.51-13.45 22.86-20.63 7.34-7.18 16.82-17.11 21.06-22.06 4.24-4.95 10.43-12.6 13.74-17 3.32-4.4 10.04-14.03 14.94-21.39 4.89-7.37 10.03-14.19 11.4-15.17 1.38-0.97 3.85-2.32 5.5-3 1.91-0.79 11.9-1.5 27.5-1.95 20.65-0.6 25.52-1.04 31-2.78 3.63-1.15 8.7-3.78 11.5-5.96 2.75-2.15 6.22-6.12 7.72-8.83 1.49-2.7 3.4-8.07 4.23-11.92 0.83-3.85 1.52-10.71 1.55-23.5l-6.75 3.96c-3.71 2.17-10.58 5.06-15.25 6.41-4.67 1.36-13.45 2.99-19.5 3.63-6.43 0.68-15.36 0.88-21.5 0.49-5.77-0.37-14.21-1.3-18.75-2.08-4.54-0.78-11.96-2.78-16.5-4.46-4.54-1.67-10.73-4.55-13.75-6.39-3.02-1.83-8.2-6.04-11.5-9.34-3.3-3.3-7.89-9.31-10.19-13.36-2.31-4.05-5.31-10.73-6.66-14.86-1.36-4.12-3.19-11.78-4.07-17-1.13-6.76-1.59-15.99-1.58-32 0-15.5 0.49-25.45 1.56-32 0.85-5.22 2.68-12.87 4.07-17 1.39-4.12 3.84-9.97 5.45-13 1.61-3.02 4.95-8.09 7.42-11.25 2.48-3.16 7.31-7.82 10.75-10.36 3.44-2.53 8.73-5.85 11.75-7.38 3.02-1.53 9.1-3.9 13.5-5.28 4.4-1.37 11.38-3.11 15.5-3.87 4.92-0.89 15.23-1.35 30-1.34 17.75 0.02 24.4 0.41 31.5 1.84 4.95 1.01 12.6 3.13 17 4.72 4.4 1.59 10.48 4.36 13.5 6.16 3.02 1.8 7.69 5.07 10.37 7.26 2.69 2.2 6.92 6.7 9.41 10 2.49 3.3 5.99 9.15 7.79 13 1.79 3.85 4.18 10.6 5.3 15 1.13 4.4 2.51 12.05 3.08 17 0.59 5.16 1.04 33.42 1.04 66.25 0.01 34.88-0.42 61.06-1.08 67-0.6 5.36-2.18 13.46-3.5 18-1.33 4.54-3.71 10.84-5.3 14-1.59 3.16-4.88 8.45-7.3 11.75-2.43 3.3-7.32 8.19-10.86 10.86-3.55 2.67-8.25 5.77-10.45 6.89-2.2 1.12-6.92 3.15-10.5 4.5-3.58 1.36-10.55 3.38-15.5 4.5-8 1.8-13.25 2.07-85.5 2.75l-6.86 9.25c-3.78 5.09-11.13 14.2-16.35 20.25-5.21 6.05-14.61 15.89-20.88 21.87-6.28 5.98-15.68 14.32-20.91 18.53-5.23 4.2-14 10.86-19.5 14.79-5.5 3.93-14.95 10.12-21 13.76-6.05 3.63-15.73 9.03-21.5 11.98-5.77 2.96-15.45 7.48-21.5 10.06-6.05 2.58-16.85 6.7-24 9.15-7.15 2.45-17.95 5.76-24 7.35-6.05 1.58-15.73 3.8-21.5 4.92-5.77 1.12-15.9 2.82-22.5 3.79-9.37 1.36-18.79 1.75-43 1.77-24.72 0.02-33.63-0.34-44-1.8-7.15-1-20.43-3.4-29.5-5.33-9.07-1.92-23.7-5.87-32.5-8.77-8.8-2.9-21.63-7.64-28.5-10.53-6.87-2.9-16.1-7.08-20.5-9.29-4.4-2.22-13.85-7.52-21-11.78-7.15-4.26-18.25-11.51-24.68-16.11-6.42-4.6-16.32-12.24-22-16.98-5.67-4.73-15.05-13.28-20.82-19-5.78-5.71-14.05-14.43-18.38-19.38-4.34-4.95-11.92-14.4-16.85-21-4.93-6.6-12.38-17.4-16.55-24-4.17-6.6-11.07-18.75-15.34-27-4.26-8.25-9.87-20.17-12.45-26.5-2.59-6.33-6.69-17.35-9.12-24.5-2.43-7.15-5.93-19.08-7.77-26.5-1.85-7.42-4.3-18.9-5.45-25.5-1.15-6.6-2.76-18.3-3.58-26-0.87-8.16-1.49-23.69-1.5-37.25-0.01-14.09 0.6-29.06 1.54-38 0.86-8.11 2.67-20.83 4.03-28.25 1.37-7.42 4.02-19.35 5.9-26.5 1.87-7.15 5.42-18.85 7.87-26 2.46-7.15 6.78-18.4 9.61-25 2.82-6.6 8.32-18.08 12.21-25.5 3.88-7.42 10.34-18.67 14.35-25 4.01-6.33 11.32-16.9 16.25-23.5 4.93-6.6 12.51-16.05 16.85-21 4.33-4.95 12.6-13.67 18.38-19.38 5.77-5.71 14.78-13.96 20-18.34 5.23-4.39 14-11.26 19.5-15.28 5.5-4.02 14.95-10.42 21-14.22 6.05-3.79 15.27-9.2 20.5-12.01 5.23-2.82 15.69-7.85 23.25-11.19 7.56-3.35 19.49-8.05 26.5-10.45 7.01-2.41 17.02-5.55 22.25-6.97 5.23-1.43 14.9-3.7 21.5-5.03 6.6-1.34 17.63-3.15 24.5-4.03 6.87-0.87 14.3-1.74 16.5-1.93 2.2-0.18 13.68-0.41 25.5-0.5zm303.92 335.33c-2.37 1.65-5.57 4.8-7.11 7-1.54 2.2-3.71 7.6-4.84 12-1.42 5.56-2.22 12.87-2.64 24-0.36 9.49-0.14 20.68 0.54 27.5 0.63 6.33 1.83 13.75 2.67 16.5 0.85 2.75 2.25 6.13 3.13 7.5 0.87 1.38 2.77 3.78 4.21 5.34 1.44 1.57 4.64 3.88 7.12 5.14 2.48 1.26 7.2 2.86 10.5 3.57 3.3 0.7 11.85 1.27 19 1.27 7.15 0 15.7-0.57 19-1.27 3.3-0.71 8.02-2.32 10.5-3.58 2.48-1.26 5.91-3.79 7.64-5.63 1.73-1.84 4.04-5.14 5.13-7.34 1.09-2.2 2.46-6.25 3.03-9 0.58-2.75 1.35-10.85 1.71-18 0.36-7.15 0.19-19.53-0.37-27.5-0.64-9.04-1.79-16.95-3.05-21-1.11-3.57-3.32-8.3-4.93-10.5-1.71-2.36-5.32-5.3-8.78-7.16-3.24-1.74-8.58-3.66-11.88-4.26-3.3-0.6-12.08-1.06-19.5-1.03-9.21 0.05-15.61 0.6-20.14 1.76-3.65 0.93-8.57 3.04-10.94 4.69zm1131.08-97.5h17v242h-17zm-1527-32l0.07 94.5 9.72-4.75c5.34-2.61 13.76-5.75 18.71-6.98 7.91-1.95 11.55-2.22 30-2.17 19.55 0.04 21.69 0.23 31 2.73 5.5 1.48 13.15 4.19 17 6.03 3.85 1.84 9.88 5.55 13.4 8.25 3.52 2.69 8.57 7.82 11.22 11.39 2.65 3.58 6.13 9.2 7.73 12.5 1.61 3.3 3.89 9.15 5.08 13 1.18 3.85 2.84 10.83 3.67 15.5 0.83 4.68 1.77 17.05 2.09 27.5 0.33 10.91 0.1 24.75-0.55 32.5-0.61 7.43-2.19 17.78-3.5 23-1.3 5.22-3.94 12.88-5.86 17-1.91 4.13-5.51 10.2-7.98 13.5-2.48 3.3-7.39 8.19-10.9 10.86-3.52 2.68-9.44 6.39-13.15 8.25-3.71 1.87-10.46 4.46-15 5.77-4.54 1.31-12.3 2.99-17.25 3.75-5.49 0.84-16.79 1.35-29 1.31-14.58-0.04-22.44-0.52-29-1.78-4.95-0.94-12.6-2.88-17-4.31-4.4-1.42-9.35-3.27-11-4.11-1.65-0.84-5.47-3.2-8.5-5.25-3.02-2.05-7.49-5.7-9.91-8.11-2.43-2.41-6.49-7.53-9.03-11.38-2.69-4.09-5.93-10.95-7.78-16.5-1.75-5.22-3.94-13.32-4.88-18-1.54-7.66-1.72-18.73-1.97-215.89l3.03-0.61c1.67-0.33 12.27-2.12 23.54-3.96 11.28-1.84 21.74-3.4 26-3.54zm18.25 127.86c-1.24 0.63-4.11 2.83-6.37 4.89-2.27 2.06-5.25 6-6.62 8.75-1.37 2.75-3.12 8.26-3.88 12.25-0.94 4.94-1.38 15.06-1.38 31.75 0 17.91 0.41 26.58 1.53 32.25 0.83 4.26 2.75 10.4 4.25 13.64 1.53 3.32 4.57 7.57 6.97 9.75 2.34 2.12 6.16 4.71 8.5 5.74 2.34 1.03 6.95 2.43 10.25 3.11 3.87 0.79 11.15 1.06 20.5 0.76 11.51-0.37 15.64-0.9 20-2.56 3.03-1.16 7.41-3.47 9.75-5.15 2.34-1.67 5.36-4.73 6.72-6.79 1.35-2.06 3.39-6.45 4.52-9.75 1.14-3.3 2.56-10.28 3.16-15.5 0.67-5.7 0.89-17.89 0.57-30.5-0.36-14.34-1.04-22.98-2.13-27.25-0.87-3.44-2.66-8.39-3.96-11-1.31-2.61-3.5-6.1-4.86-7.75-1.36-1.65-5.13-4.41-8.37-6.14-3.25-1.73-8.26-3.64-11.15-4.25-2.89-0.61-11.21-1.09-18.5-1.05-9.38 0.03-15.29 0.58-20.25 1.86-3.85 0.99-8.01 2.32-9.25 2.94zm218.75-99.49c1.29 0.13 1.54 4.21 2 57.63h36.5c28.53 0 36.5 0.27 36.5 1.25 0 0.69-1.91 10.6-8.5 42.79l-64.5-0.04v44.5c0 29.14 0.39 46.31 1.12 49.75 0.62 2.89 1.97 6.94 3 9 1.04 2.06 3.34 4.87 5.13 6.23 1.79 1.37 5.5 3.22 8.25 4.12 3.77 1.24 10.83 1.8 52.5 2.9l-0.57 3c-0.31 1.65-2.26 11.1-8.08 39l-25.42-0.08c-19.38-0.06-27.69-0.49-34.93-1.8-5.22-0.94-12.65-2.82-16.5-4.17-3.85-1.35-9.25-3.96-12-5.8-2.75-1.85-6.94-5.33-9.3-7.75-2.37-2.42-5.84-7.55-7.71-11.4-1.87-3.85-4.08-9.7-4.91-13-0.83-3.3-1.98-9.83-2.55-14.5-0.65-5.33-1.02-43.09-0.96-193.82l6.72-1.11c3.69-0.61 14.81-2.4 24.71-3.98 9.9-1.59 18.68-2.81 19.5-2.72zm859.75 23.75c0.97-0.09 1.25 5.08 1.25 45.88h72l-0.66 3.75c-0.37 2.06-1.18 5.77-2.97 12.75l-68.37 0.5 0.34 56.25c0.3 48.69 0.57 56.99 1.99 61.75 0.91 3.03 2.89 7.5 4.41 9.95 1.53 2.47 4.76 5.68 7.26 7.22 2.47 1.52 7.2 3.45 10.5 4.3 4.41 1.13 11.22 1.54 25.75 1.54 10.86-0.01 19.93 0.33 20.15 0.74 0.23 0.41-0.34 4.25-2.9 16.29l-18.75-0.02c-12.56-0.01-21.31-0.52-26.5-1.53-4.26-0.83-10.45-2.77-13.75-4.3-3.3-1.53-8.18-4.79-10.84-7.24-2.82-2.59-6.04-6.95-7.73-10.45-1.59-3.3-3.67-8.7-4.63-12-1.59-5.46-1.79-13.99-2.59-182.34l5.4-1.03c2.96-0.57 6.29-1.22 7.39-1.46 1.1-0.24 2.56-0.49 3.25-0.55zm-422.75 43.3c12.88 0.28 18.25 0.83 24.5 2.51 4.4 1.18 10.93 3.59 14.5 5.35 4.02 1.99 9.01 5.69 13.07 9.71 4.61 4.57 7.66 8.75 10.21 14.01 2.01 4.13 4.57 11.1 5.69 15.5 1.12 4.4 2.49 12.5 3.04 18 0.55 5.5 1 16.3 1 24 0 7.7-0.45 18.5-1 24-0.55 5.5-1.9 13.6-3 18-1.11 4.4-3.66 11.38-5.68 15.5-2.52 5.17-5.71 9.55-10.25 14.1-4.63 4.64-8.8 7.66-14.08 10.2-4.12 1.98-10.42 4.33-14 5.22-3.76 0.94-12.82 1.85-21.5 2.15-12.76 0.45-16.5 0.22-25-1.57-6.65-1.39-13.02-3.57-19-6.52-5.05-2.48-11.3-6.55-19.46-14.08l-0.04 75.5h-17l0.01-81.25c0-67.13 0.26-82.99 1.5-91.25 0.83-5.5 2.47-12.92 3.66-16.5 1.18-3.58 3.27-8.52 4.62-11 1.36-2.47 4.1-6.66 6.09-9.29 1.99-2.64 5.2-6.06 7.12-7.6 1.93-1.54 5.98-4.19 9-5.87 3.03-1.68 7.75-3.83 10.5-4.76 2.75-0.93 8.15-2.31 12-3.06 4.77-0.93 12.26-1.25 23.5-1zm-35 22.35c-3.02 1.44-7.75 4.88-10.5 7.67-2.76 2.78-6.2 7.54-7.66 10.56-1.46 3.03-3.37 8.2-4.24 11.5-0.88 3.3-2.1 11.63-2.72 18.5-0.64 7.14-0.87 19.79-0.54 29.5 0.42 12.47 1.13 19.13 2.65 25 1.15 4.4 3.28 10.03 4.74 12.5 1.46 2.47 4.7 6.68 7.21 9.34 2.78 2.95 7.29 6.17 11.56 8.26 3.85 1.88 10.15 4.09 14 4.9 3.92 0.82 12.29 1.47 19 1.47 6.9 0 14.98-0.64 19-1.51 3.85-0.82 9.36-2.61 12.25-3.98 2.89-1.36 7.28-4.51 9.75-6.98 2.47-2.47 5.79-7.09 7.37-10.25 1.57-3.16 3.66-8.67 4.63-12.25 1.39-5.15 1.86-11.9 2.23-32.5 0.38-20.95 0.16-27.8-1.13-35.25-0.88-5.09-2.84-12.28-4.35-15.98-1.74-4.26-4.58-8.7-7.75-12.1-3.03-3.25-7.37-6.51-11-8.27-3.3-1.6-9.15-3.58-13-4.39-4.17-0.88-12.05-1.45-19.5-1.41-7.09 0.04-15.53 0.71-19.5 1.57-3.85 0.82-9.47 2.67-12.5 4.1zm184.31-19.53c31.54 0.37 34.81 0.57 42.19 2.62 4.4 1.22 10.89 3.66 14.42 5.43 3.53 1.77 8.7 5.47 11.5 8.23 2.86 2.84 6.45 7.85 8.23 11.5 1.73 3.57 3.87 9.74 4.75 13.73 1.33 6.01 1.6 14.37 1.6 48.75 0 26.46-0.4 43.4-1.11 46.75-0.6 2.89-2.4 8.06-4 11.5-1.65 3.58-5.03 8.39-7.89 11.25-2.99 2.99-7.92 6.4-12.25 8.49-3.99 1.92-10.17 4.28-13.75 5.25-5.32 1.44-10.68 1.76-29.5 1.76-16.27 0-24.61-0.4-28.5-1.38-3.03-0.76-8.42-2.71-12-4.32-3.57-1.61-8.49-4.59-10.93-6.61-2.44-2.03-5.91-5.94-7.72-8.69-1.81-2.75-4.26-7.7-5.44-11-1.64-4.61-2.25-9.14-2.62-19.5-0.35-10.04-0.07-15.42 1.11-21 0.87-4.12 2.9-10.2 4.51-13.5 1.62-3.3 5.33-8.4 8.26-11.33 2.93-2.93 8.03-6.64 11.33-8.24 3.3-1.61 9.6-3.87 14-5.04 6.59-1.75 10.92-2.13 24.5-2.14 13.09-0.02 18.57 0.41 26.5 2.1 5.77 1.23 12.96 3.6 17 5.61 3.85 1.91 8.07 4.28 11.76 7.04l-0.45-16c-0.38-13.18-0.83-16.97-2.58-21.5-1.17-3.02-3.89-7.52-6.04-10-2.15-2.47-6.11-5.59-8.8-6.92-2.69-1.34-7.14-3.1-9.89-3.91-3.87-1.15-12.94-1.58-40-1.9-19.25-0.23-35.31-0.72-35.68-1.09-0.38-0.37-0.03-3.6 0.78-7.18 0.81-3.58 1.7-7.1 1.99-7.83 0.42-1.08 6.91-1.26 34.72-0.93zm-19.06 83.63c-2.34 1.17-6.08 4.04-8.31 6.38-2.23 2.34-5.03 6.72-6.22 9.75-1.86 4.73-2.17 7.54-2.19 20-0.03 12.6 0.24 15.09 2.04 19 1.15 2.47 3.62 6.23 5.5 8.34 1.89 2.11 5.68 4.92 8.43 6.25 2.75 1.32 8.15 3.07 12 3.89 4.52 0.96 12.75 1.49 23.25 1.5 9.73 0.01 19.16-0.53 23.5-1.36 3.99-0.76 9.05-2.28 11.25-3.38 2.2-1.09 5.35-3.12 7-4.49 1.65-1.37 4.13-4.69 5.5-7.37 2.37-4.62 2.5-5.75 2.5-21.38 0-15.39-0.16-16.8-2.36-21-1.29-2.47-3.99-6.23-6-8.34-2-2.11-5.67-4.87-8.14-6.14-2.47-1.27-7.2-3.07-10.5-3.99-4.19-1.17-11.29-1.8-23.5-2.09-12.46-0.29-19.23-0.02-23.5 0.94-3.3 0.75-7.91 2.32-10.25 3.49zm249.75-83.87l-1.5 6.25c-0.83 3.44-1.73 7.26-2.5 10.75l-26.75 0.02c-20.03 0.01-28.51 0.39-33.75 1.52-3.85 0.83-9.65 2.74-12.88 4.24-3.67 1.7-7.71 4.69-10.75 7.97-2.68 2.89-5.99 7.61-7.35 10.5-1.37 2.89-3.19 8.4-4.07 12.25-0.98 4.37-1.79 14.34-2.15 26.5-0.35 12.13-0.13 23.28 0.59 29.5 0.63 5.5 2.05 12.92 3.15 16.5 1.09 3.58 3.06 8.3 4.36 10.5 1.31 2.2 4.68 6.14 7.49 8.75 2.81 2.61 7.47 5.87 10.36 7.23 2.89 1.37 8.74 3.17 13 4 5.78 1.13 14.72 1.52 35.25 1.52 15.13 0 27.5 0.34 27.5 0.75 0 0.41-0.79 4.28-3.5 16.45l-30-0.43c-27.13-0.39-30.77-0.64-38-2.65-4.4-1.22-10.92-3.66-14.48-5.42-4.07-2.01-9.12-5.8-13.61-10.2-5.26-5.16-8.07-8.97-10.73-14.5-1.99-4.12-4.62-11.1-5.86-15.5-2.11-7.51-2.25-9.89-2.25-39 0-28.92 0.15-31.54 2.21-39 1.22-4.4 3.89-11.37 5.94-15.5 2.11-4.25 6.12-10.04 9.25-13.36 3.04-3.22 8-7.35 11.03-9.17 3.03-1.82 8.88-4.45 13-5.85 4.13-1.39 9.97-2.95 13-3.46 3.03-0.51 18.66-0.98 64-1.16zm141 0h18l0.02 60.75c0.01 47.15 0.32 62.2 1.37 67.25 0.74 3.58 2.22 8.53 3.28 11 1.06 2.47 3.76 6.53 5.99 9 2.44 2.7 6.42 5.58 9.95 7.19 3.24 1.48 8.82 3.16 12.39 3.74 3.58 0.58 11.56 1.06 17.75 1.06 6.45 0.01 14.56-0.67 19-1.59 4.26-0.88 9.78-2.63 12.25-3.88 2.47-1.26 6.33-4.25 8.57-6.65 2.23-2.4 5.05-6.96 6.25-10.12 1.2-3.16 2.63-8.56 3.17-12 0.58-3.62 1-31.38 1.01-125.75h16.78l-0.2 64.25c-0.18 57.47-0.38 64.94-1.94 70.75-0.95 3.58-3.26 9.65-5.12 13.5-2.07 4.28-5.45 9.05-8.7 12.27-2.93 2.91-7.79 6.6-10.82 8.21-3.03 1.61-9.1 3.89-13.5 5.06-5.53 1.48-12.32 2.31-22 2.68-8.48 0.32-17.55 0.06-23-0.67-4.95-0.66-11.92-2.22-15.5-3.47-3.57-1.24-8.41-3.46-10.75-4.92-2.34-1.46-6.28-4.8-8.77-7.41-2.48-2.61-5.83-7.45-7.44-10.75-1.61-3.3-3.63-8.7-4.5-12-0.86-3.3-2.01-9.83-2.55-14.5-0.53-4.67-0.98-34.26-0.98-65.75zm182.19-0.16l34.15 0.43c28.26 0.36 35.37 0.74 41.16 2.2 3.85 0.97 10.15 3.18 14 4.92 4.29 1.94 9.26 5.28 12.83 8.64 3.95 3.7 6.95 7.73 9.27 12.47 1.88 3.85 4.09 10.49 4.91 14.75 1.17 6.07 1.49 16.47 1.47 48-0.01 32.09-0.31 41.52-1.5 46.5-0.81 3.44-2.49 8.38-3.73 10.99-1.24 2.6-4.73 7.37-7.75 10.6-3.73 3.97-7.75 6.96-12.5 9.29-4.06 1.99-11.2 4.29-17 5.48-8.74 1.8-12.6 2-30.5 1.62-17.3-0.37-21.67-0.79-28-2.64-4.13-1.21-9.91-3.64-12.86-5.39-2.95-1.76-7.45-5.46-10-8.23-2.55-2.76-5.65-7.15-6.89-9.75-1.24-2.59-2.93-7.31-3.76-10.47-0.97-3.73-1.49-10.33-1.48-18.75 0.01-8.23 0.59-15.39 1.57-19.5 0.85-3.58 2.76-8.95 4.24-11.95 1.47-3 4.93-7.73 7.68-10.52 2.75-2.79 7.7-6.5 11-8.24 3.3-1.75 10.05-4.17 15-5.39 7.32-1.8 11.89-2.22 24.5-2.22 10.7 0 18.29 0.54 24.5 1.75 4.95 0.96 11.7 2.82 15 4.13 3.3 1.31 7.91 3.75 10.25 5.41 2.34 1.67 4.47 3.03 4.75 3.03 0.27 0 0.49-5.74 0.47-12.75-0.01-7.01-0.47-14.77-1.01-17.25-0.55-2.47-1.74-6.3-2.67-8.5-0.92-2.2-3.16-5.91-4.98-8.25-2.18-2.8-5.45-5.28-9.56-7.26-3.44-1.65-9.74-3.68-14-4.5-5.88-1.13-15.5-1.49-71.75-1.49v-2.25c0.01-1.24 0.41-3.83 0.91-5.75 0.49-1.92 1.21-4.77 1.59-6.33zm16.31 83.91c-2.2 1.1-5.35 3.12-7 4.49-1.65 1.37-4.2 4.69-5.65 7.38-1.46 2.68-3.2 7.35-3.87 10.38-0.77 3.47-1.04 9.93-0.74 17.5 0.32 7.97 1.03 13.26 2.12 15.75 0.9 2.06 3.32 5.61 5.39 7.87 2.06 2.27 6 5.25 8.75 6.63 2.75 1.37 7.92 3.11 11.5 3.85 3.91 0.82 12.96 1.37 22.75 1.38 10.57 0.01 18.95-0.51 24-1.5 4.26-0.84 9.71-2.53 12.11-3.75 2.4-1.23 6.11-4.14 8.25-6.48 2.58-2.82 4.43-6.19 5.51-10 1.25-4.43 1.53-8.74 1.2-18.75-0.36-10.7-0.83-13.88-2.68-18-1.23-2.75-4.13-6.91-6.44-9.25-2.31-2.34-6.68-5.35-9.7-6.7-3.03-1.34-9.55-3.15-14.5-4.01-5.34-0.92-14.3-1.52-22-1.47-7.15 0.05-15.7 0.67-19 1.38-3.3 0.71-7.8 2.19-10 3.3z"/>
</svg>