<svg version="1.2" xmlns="http://www.w3.org/2000/svg" viewBox="0 0 1553 1405" width="1553" height="1405">
	<style>
		.s0 { fill: #001e62 } 
	</style>
	<path id="Path 0" fill-rule="evenodd" class="s0" d="m693.5 0.08c18.7-0.04 37.83 0.37 42.5 0.9 4.67 0.53 16.15 1.67 25.5 2.54 9.35 0.86 24.42 2.7 33.5 4.09 9.08 1.38 24.15 4.05 33.5 5.92 9.35 1.87 25.33 5.48 35.5 8.02 10.17 2.55 28.17 7.79 40 11.66 11.83 3.87 29.15 10.07 38.5 13.79 9.35 3.72 23.08 9.46 30.5 12.75 7.42 3.3 20.7 9.6 29.5 14 8.8 4.4 22.08 11.5 29.5 15.78 7.42 4.28 19.58 11.58 27 16.23 7.42 4.64 20.03 13 28 18.57 7.97 5.57 20.8 15.04 28.5 21.04 7.7 6 20.08 16.1 27.5 22.46 7.42 6.35 21.54 19.45 31.37 29.11 9.83 9.66 23.8 24.09 31.03 32.06 7.23 7.97 18.55 21.25 25.14 29.5 6.6 8.25 15.65 19.95 20.11 26 4.47 6.05 13.3 18.88 19.63 28.5 6.34 9.63 15.85 24.93 21.15 34 5.3 9.07 15.23 27.75 22.07 41.5 6.85 13.75 12.46 25.34 12.47 25.75 0.02 0.41-6.81 0.64-30.37 0.25l-11.38-22c-6.25-12.1-15.23-28.52-19.95-36.5-4.72-7.98-13.53-21.93-19.57-31-6.03-9.07-14.14-20.77-18.01-26-3.87-5.23-11.56-15.13-17.1-22-5.53-6.88-14.77-17.9-20.53-24.5-5.76-6.6-18.82-20.33-29.02-30.51-10.2-10.18-24.84-23.93-32.54-30.56-7.7-6.63-19.17-16.1-25.5-21.05-6.33-4.95-16.67-12.77-23-17.39-6.33-4.61-17.8-12.52-25.5-17.57-7.7-5.06-21.65-13.57-31-18.93-9.35-5.36-25.1-13.79-35-18.74-9.9-4.95-25.65-12.27-35-16.26-9.35-3.99-23.08-9.51-30.5-12.27-7.42-2.75-20.7-7.34-29.5-10.19-8.8-2.85-24.55-7.36-35-10.02-10.45-2.65-25.75-6.2-34-7.88-8.25-1.69-21.08-4-28.5-5.15-7.42-1.14-21.37-2.94-31-3.99-9.62-1.05-27.17-2.44-39-3.08-12.68-0.69-30.94-0.91-44.5-0.54-12.65 0.34-29.08 1.09-36.5 1.65-7.42 0.57-22.73 2.18-34 3.57-11.27 1.4-26.58 3.65-34 5.01-7.42 1.36-20.48 4.08-29 6.04-8.52 1.97-24.73 6.19-36 9.39-11.27 3.2-28.82 8.82-39 12.5-10.18 3.68-22.32 8.26-27 10.19-4.68 1.92-15.93 6.88-25 11.02-9.07 4.13-23.93 11.44-33 16.24-9.07 4.79-21.68 11.79-28 15.53-6.32 3.75-18.7 11.52-27.5 17.27-8.8 5.74-22.98 15.67-31.5 22.06-8.52 6.39-20.9 16.12-27.5 21.61-6.6 5.49-16.49 14.05-21.98 19.02-5.49 4.96-14.9 13.76-20.91 19.53-6.01 5.78-17.23 17.47-24.94 26-7.7 8.53-18.06 20.45-23.02 26.5-4.95 6.05-14.37 18.2-20.92 27-6.56 8.8-15.65 21.63-20.2 28.5-4.55 6.88-12.85 20.15-18.45 29.5-5.59 9.35-15.28 27.13-21.53 39.5-6.25 12.38-14.82 30.6-19.03 40.5-4.22 9.9-10.51 25.88-13.98 35.5-3.47 9.63-8.14 23.57-10.37 31-2.24 7.43-5.87 20.48-8.08 29-2.21 8.52-5.18 20.9-6.6 27.5-1.41 6.6-3.88 19.65-5.47 29-1.6 9.35-3.81 24.88-4.92 34.5-1.11 9.63-2.54 25.15-3.19 34.5-0.75 10.89-0.97 29.94-0.62 53 0.32 21.1 1.22 43.03 2.18 53 0.89 9.35 2.75 25.1 4.13 35 1.38 9.9 3.86 24.98 5.52 33.5 1.65 8.52 4.97 23.6 7.39 33.5 2.41 9.9 7.15 27 10.52 38 3.38 11 8.86 27.2 12.19 36 3.33 8.8 8.51 21.85 11.51 29 2.99 7.15 9.26 20.88 13.92 30.5 4.66 9.63 11.44 22.9 15.07 29.5 3.64 6.6 9.99 17.63 14.12 24.5 4.13 6.88 12.01 19.25 17.52 27.5 5.51 8.25 14.94 21.53 20.95 29.5 6.02 7.97 16.4 21 23.07 28.94 6.66 7.95 18.65 21.42 26.62 29.94 7.98 8.53 20.8 21.33 28.5 28.47 7.7 7.13 19.85 17.93 27 24 7.15 6.07 20.2 16.41 29 22.97 8.8 6.57 24.32 17.46 34.5 24.22 10.18 6.75 25.7 16.39 34.5 21.43 8.8 5.03 24.55 13.36 35 18.5 10.45 5.15 26.43 12.49 35.5 16.32 9.07 3.83 22.8 9.31 30.5 12.18 7.7 2.87 23.68 8.13 35.5 11.69 11.83 3.57 30.05 8.46 40.5 10.87 10.45 2.42 27.1 5.78 37 7.47 9.9 1.69 24.75 3.93 33 4.98 8.25 1.05 22.42 2.48 31.5 3.19 9.08 0.71 30.9 1.26 48.5 1.23 17.6-0.02 38.75-0.6 47-1.28 8.25-0.68 22.42-2.14 31.5-3.24 9.08-1.11 24.38-3.35 34-4.99 9.63-1.64 24.7-4.57 33.5-6.52 8.8-1.95 24.33-5.95 34.5-8.89 10.17-2.93 25.25-7.68 33.5-10.55 8.25-2.87 23.33-8.56 33.5-12.64 10.17-4.09 26.6-11.31 36.5-16.04 9.9-4.74 23.4-11.52 30-15.06 6.6-3.55 17.63-9.84 24.5-13.97 6.88-4.13 17.67-10.88 24-15 6.33-4.12 19.15-13.12 28.5-20 9.35-6.88 23.52-17.96 31.49-24.61 7.96-6.66 20.79-18.01 28.5-25.22 7.7-7.21 19.41-18.68 26.02-25.5 6.61-6.81 17.21-18.47 23.57-25.89 6.35-7.42 14.93-17.78 19.05-23 4.12-5.22 10.81-14 14.87-19.5 4.05-5.5 12.71-18.1 19.23-28 6.52-9.9 13.75-20.63 16.06-23.85 2.32-3.21 6.46-7.59 9.21-9.71 2.75-2.13 7.7-4.87 11-6.1 5.71-2.12 7.96-2.26 46.5-2.91 30.59-0.52 43.19-1.11 51.5-2.41 6.05-0.94 15.06-3.13 20.02-4.87 4.97-1.73 11.69-4.73 14.95-6.65 3.26-1.92 8.65-6.2 11.98-9.5 3.6-3.56 7.54-8.84 9.71-13 2.01-3.85 4.61-9.92 5.78-13.5 1.17-3.58 2.79-10.55 3.6-15.5 0.81-4.95 1.8-16.31 2.21-25.25 0.59-12.74 0.48-16.26-0.5-16.25-0.69 0-3.39 1.53-6 3.41-2.61 1.87-7.9 4.98-11.75 6.9-3.85 1.92-9.7 4.59-13 5.92-3.3 1.33-9.15 3.37-13 4.53-3.85 1.15-10.37 2.78-14.5 3.61-4.12 0.84-11.55 2.1-16.5 2.82-5.82 0.85-18.89 1.29-37 1.25-21.32-0.05-30.74-0.48-39.5-1.81-6.33-0.96-16.22-2.83-22-4.15-5.78-1.33-14.33-3.71-19-5.29-4.67-1.58-12.33-4.66-17-6.85-4.67-2.18-12.55-6.7-17.5-10.04-4.95-3.34-11.88-8.72-15.41-11.94-3.52-3.22-9.18-9.46-12.58-13.86-3.39-4.4-7.79-10.7-9.77-14-1.98-3.3-5.15-9.37-7.04-13.5-1.89-4.12-5.02-12.45-6.97-18.5-1.95-6.05-4.45-15.27-5.56-20.5-1.11-5.23-2.82-15.35-3.81-22.5-1.46-10.68-1.78-20.15-1.78-53-0.01-36.22 0.2-41.32 2.18-54 1.21-7.7 3.55-19.4 5.22-26 1.66-6.6 4.21-15.15 5.66-19 1.45-3.85 5.15-11.95 8.23-18 3.07-6.05 8.27-14.6 11.56-19 3.28-4.4 8.91-10.95 12.52-14.55 3.6-3.6 10.15-9.2 14.55-12.44 4.4-3.25 12.95-8.49 19-11.66 6.05-3.16 16.4-7.54 23-9.73 6.6-2.19 17.17-5.12 23.5-6.51 6.33-1.4 17.13-3.33 24-4.29 9.84-1.38 19.62-1.76 46-1.79 21.61-0.02 37.4 0.44 44.5 1.29 6.05 0.72 17.3 2.61 25 4.21 7.7 1.59 19.29 4.71 25.75 6.93 6.46 2.22 15.91 6.11 21 8.65 5.09 2.53 12.85 6.99 17.25 9.91 4.4 2.92 11.55 8.61 15.9 12.65 4.34 4.03 11.1 11.6 15.02 16.83 3.91 5.23 8.98 13.1 11.26 17.5 2.28 4.4 5.5 11.38 7.14 15.5 1.64 4.13 4.13 11.55 5.53 16.5 1.4 4.95 3.47 14.17 4.6 20.5 1.14 6.33 2.62 18.92 3.31 28 0.93 12.43 1.11 45.11 0.7 132.5-0.53 113.65-0.59 116.24-2.72 128-1.2 6.6-3.37 16.5-4.81 22-1.44 5.5-3.98 13.38-5.63 17.5-1.65 4.13-4.35 10.2-6.01 13.5-1.65 3.3-5.53 9.83-8.62 14.5-3.08 4.67-9.9 12.78-15.14 18-5.24 5.22-12.9 11.82-17.03 14.65-4.12 2.84-12 7.42-17.5 10.17-5.5 2.76-15.17 6.79-21.5 8.97-6.33 2.17-16.9 5.1-23.5 6.51-6.6 1.4-16.95 3.25-23 4.11-6.05 0.86-18.42 2.02-27.5 2.57-9.08 0.56-40.58 1-123.5 0.94l-12 15.78c-6.6 8.68-17.2 21.86-23.56 29.29-6.35 7.43-17.38 19.78-24.5 27.44-7.12 7.66-20.36 20.89-29.44 29.39-9.08 8.5-23.14 21.01-31.25 27.82-8.11 6.8-21.16 17.15-29 23.01-7.84 5.86-21.45 15.45-30.25 21.32-8.8 5.86-20.5 13.38-26 16.69-5.5 3.32-17.2 10.01-26 14.87-8.8 4.86-23.42 12.4-32.5 16.75-9.08 4.35-22.12 10.28-29 13.17-6.87 2.9-19.48 7.87-28 11.05-8.52 3.18-23.83 8.42-34 11.66-10.17 3.24-26.37 7.87-36 10.3-9.62 2.42-24.02 5.76-32 7.4-7.98 1.64-23.27 4.36-34 6.03-10.73 1.67-26.25 3.71-34.5 4.53-8.25 0.82-20.51 1.96-27.25 2.54-6.74 0.57-25.86 1.04-42.5 1.04-18.46 0-37.07-0.58-47.75-1.5-9.62-0.82-21.77-1.97-27-2.55-5.23-0.57-14.67-1.73-21-2.56-6.33-0.83-17.8-2.63-25.5-4.01-7.7-1.37-19.85-3.8-27-5.39-7.15-1.59-19.08-4.5-26.5-6.47-7.42-1.96-20.25-5.65-28.5-8.19-8.25-2.54-21.52-6.97-29.5-9.86-7.98-2.88-19-7.06-24.5-9.28-5.5-2.21-14.5-6.03-20-8.48-5.5-2.45-18.32-8.63-28.5-13.72-10.18-5.09-23.9-12.29-30.5-15.99-6.6-3.7-16.27-9.32-21.5-12.49-5.23-3.16-15.57-9.83-23-14.81-7.43-4.99-17.55-11.98-22.5-15.54-4.95-3.55-15.07-11.23-22.5-17.06-7.43-5.82-18.9-15.28-25.5-21.03-6.6-5.74-20.26-18.57-30.35-28.51-10.1-9.93-23.86-24.14-30.58-31.56-6.73-7.42-16.67-18.9-22.09-25.5-5.42-6.6-15.04-18.97-21.38-27.5-6.33-8.53-16.07-22.47-21.63-31-5.56-8.53-13.72-21.58-18.13-29-4.41-7.42-9.62-16.42-11.58-20-1.96-3.58-7.49-14.37-12.3-24-4.8-9.62-11.53-23.8-14.95-31.5-3.42-7.7-9.04-21.42-12.49-30.5-3.45-9.08-7.81-21-9.69-26.5-1.87-5.5-5.15-15.85-7.29-23-2.14-7.15-5.48-19.08-7.43-26.5-1.95-7.42-4.86-19.58-6.48-27-1.61-7.42-4.3-21.6-5.98-31.5-1.68-9.9-3.95-25.42-5.05-34.5-1.1-9.08-2.58-23.48-3.3-32-0.8-9.61-1.3-31.66-1.3-58 0-27.26 0.46-47.16 1.29-55.5 0.71-7.15 2.19-20.2 3.29-29 1.1-8.8 2.91-21.4 4.02-28 1.12-6.6 3.16-17.62 4.54-24.5 1.38-6.87 4.3-19.7 6.5-28.5 2.19-8.8 5.73-22.07 7.87-29.5 2.14-7.43 6.2-20.25 9.03-28.5 2.83-8.25 8.44-23.32 12.46-33.5 4.02-10.18 11.19-26.82 15.93-37 4.74-10.18 12.73-26.15 17.75-35.5 5.02-9.35 12.96-23.3 17.64-31 4.68-7.7 12.87-20.52 18.2-28.5 5.32-7.98 14.39-20.8 20.15-28.5 5.75-7.7 14.89-19.4 20.31-26 5.41-6.6 14.9-17.62 21.07-24.5 6.18-6.87 20.17-21.29 31.09-32.04 10.92-10.75 26.61-25.31 34.86-32.36 8.25-7.05 22.88-18.76 32.5-26.02 9.63-7.27 26.05-18.88 36.5-25.81 10.45-6.92 26.2-16.7 35-21.72 8.8-5.02 23.88-13.12 33.5-17.99 9.63-4.87 24.02-11.78 32-15.34 7.98-3.56 19.9-8.61 26.5-11.22 6.6-2.61 22.8-8.33 36-12.72 13.2-4.39 34.35-10.6 47-13.82 12.65-3.21 31.77-7.46 42.5-9.43 10.73-1.98 28.27-4.68 39-6.01 10.73-1.32 26.48-2.91 35-3.53 8.52-0.62 15.95-1.28 16.5-1.48 0.55-0.19 16.3-0.39 35-0.43zm616.5 648.99c-4.12 1.14-10.65 3.73-14.5 5.75-3.85 2.02-9.47 6.16-12.5 9.18-3.02 3.03-7.14 8.65-9.15 12.5-2.01 3.85-4.56 9.92-5.66 13.5-1.11 3.58-2.84 11.67-3.85 18-1.56 9.78-1.84 17.49-1.84 51.5 0 34.01 0.28 41.72 1.84 51.5 1.01 6.33 2.75 14.42 3.87 18 1.11 3.58 3.61 9.65 5.54 13.5 2.22 4.41 5.78 9.23 9.64 13.04 3.94 3.9 8.77 7.36 13.61 9.75 4.13 2.04 11.1 4.62 15.5 5.72 4.4 1.11 11.6 2.46 16 3 4.4 0.55 16.21 0.99 26.25 0.99 10.04 0 22.64-0.49 28-1.09 5.36-0.6 13.13-1.97 17.25-3.03 4.13-1.06 10.42-3.3 14-4.97 3.58-1.67 8.93-4.93 11.89-7.23 2.97-2.3 7.33-6.88 9.69-10.18 2.37-3.3 5.5-8.92 6.97-12.5 1.46-3.58 3.57-10.33 4.69-15 1.83-7.64 2.08-12.68 2.49-50 0.37-33.41 0.15-44.13-1.1-55-0.86-7.42-2.47-17.1-3.58-21.5-1.11-4.4-3.94-11.79-6.29-16.43-2.93-5.8-6.13-10.27-10.26-14.34-3.99-3.93-8.68-7.21-14-9.81-4.4-2.15-10.7-4.58-14-5.41-3.3-0.82-10.72-2.16-16.5-2.98-6.53-0.93-17.49-1.46-29-1.4-10.17 0.04-22.78 0.71-28 1.48-5.22 0.76-12.87 2.32-17 3.46zm-804.25-244.93c0.99-0.11 1.25 19.25 1.25 93.86 0 51.7 0.34 93.98 0.75 93.96 0.41-0.02 3.67-2.01 7.25-4.43 3.58-2.42 10.33-6.17 15-8.35 4.67-2.17 13.67-5.56 20-7.54 6.33-1.97 16-4.46 21.5-5.54 5.5-1.08 16.08-2.5 23.5-3.16 8.35-0.75 21.7-1 35-0.66 14.31 0.36 26.02 1.24 35 2.63 7.42 1.15 18.56 3.44 24.75 5.09 6.19 1.65 16.76 5.37 23.5 8.27 6.74 2.9 16.75 8.24 22.25 11.86 5.5 3.62 13.86 10.36 18.58 14.98 4.72 4.61 11.25 11.99 14.52 16.39 3.27 4.4 8.59 13.17 11.82 19.5 3.24 6.33 7.8 17.35 10.13 24.5 2.34 7.15 5.17 17.73 6.3 23.5 1.13 5.78 2.53 13.88 3.12 18 0.58 4.13 1.49 14.03 2.03 22 0.53 7.98 0.98 27.78 0.99 44 0.01 16.23-0.46 35.58-1.03 43-0.57 7.42-1.94 19.13-3.04 26-1.1 6.88-2.86 15.88-3.91 20-1.05 4.13-3.33 11.55-5.08 16.5-1.74 4.95-4.85 12.6-6.89 17-2.05 4.4-6.89 12.73-10.77 18.5-4.32 6.44-10.28 13.59-15.41 18.51-4.6 4.4-11.51 10.37-15.36 13.27-3.85 2.9-12.85 8.15-20 11.67-7.15 3.52-18.06 8.01-24.25 9.97-6.19 1.97-16.76 4.68-23.5 6.02-6.74 1.35-18.55 3.24-26.25 4.21-10.87 1.37-21.27 1.76-46.5 1.75-25.09-0.02-35.46-0.42-45.5-1.76-7.15-0.96-18.4-2.87-25-4.25-6.6-1.38-17.4-4.31-24-6.53-6.6-2.21-17.18-6.73-23.5-10.05-6.32-3.31-14.65-8.41-18.5-11.32-3.85-2.9-11.06-9.49-16.03-14.64-4.96-5.14-11.42-12.95-14.36-17.35-2.93-4.4-7.49-12.5-10.13-18-2.64-5.5-6.14-14.05-7.78-19-1.64-4.95-4.14-14.17-5.55-20.5-1.42-6.33-3.36-16.67-4.32-23-1.59-10.57-1.77-27.8-2.53-412.68l19.85-3.16c10.92-1.73 32.45-5.15 47.85-7.59 15.4-2.44 29.13-4.63 30.5-4.87 1.38-0.23 3.06-0.49 3.75-0.56zm55.25 244.28c-5.23 1.32-11.98 3.51-15 4.87-3.02 1.37-8.31 4.56-11.75 7.1-3.44 2.53-8.1 6.97-10.37 9.86-2.26 2.89-5.36 7.73-6.88 10.75-1.52 3.03-3.9 9.1-5.29 13.5-1.39 4.4-3.13 11.83-3.87 16.5-0.98 6.25-1.34 21.21-1.34 56.5 0 34.44 0.37 50.4 1.3 56.5 0.72 4.68 2.42 12.78 3.79 18 1.36 5.23 4.36 13.33 6.67 18 3.18 6.46 5.99 10.31 11.71 16.05 5.09 5.1 9.8 8.72 14.53 11.13 3.85 1.96 9.92 4.5 13.5 5.63 3.58 1.13 9.2 2.65 12.5 3.38 4.12 0.9 14.32 1.31 32.5 1.31 21.12 0 28.02-0.34 34-1.67 4.13-0.92 11.1-2.98 15.5-4.57 4.4-1.59 10.48-4.5 13.5-6.48 3.02-1.98 7.64-5.77 10.25-8.44 2.61-2.66 5.68-6.19 6.8-7.84 1.13-1.65 3.33-5.47 4.89-8.5 1.56-3.02 4.01-9.32 5.44-14 1.44-4.67 3.34-12.32 4.23-17 1.27-6.66 1.72-17.5 2.1-50 0.39-33.63 0.19-44.06-1.08-55-0.86-7.42-2.55-17.32-3.75-22-1.19-4.67-3.38-11.42-4.85-15-1.47-3.57-4.48-9.2-6.69-12.5-2.22-3.3-6.69-8.37-9.93-11.27-3.25-2.9-8.83-6.8-12.41-8.65-3.58-1.86-9.42-4.29-13-5.39-3.58-1.1-11.56-2.72-17.75-3.6-7.05-1-17.31-1.54-27.5-1.46-8.94 0.07-19.85 0.53-24.25 1.01-4.4 0.49-12.27 1.96-17.5 3.28zm416.75-188.32c0.99-0.08 1.25 11.91 1.25 113.9h73c57.75 0 72.99 0.26 72.97 1.25-0.02 0.69-3.75 19.48-16.57 82.25l-129.4 0.5 0.01 79.75c0.01 48.57 0.43 84.44 1.08 91.75 0.59 6.6 1.96 15.38 3.04 19.5 1.08 4.13 3.28 9.98 4.89 13 1.62 3.03 4.93 7.53 7.36 10 2.44 2.48 6.83 5.73 9.77 7.23 2.94 1.51 8.95 3.73 13.35 4.94 7.6 2.1 10.27 2.23 100 2.94l-0.62 3.7c-0.34 2.03-4.16 20.72-16.38 79.4l-49.5-0.49c-37.57-0.37-52.03-0.86-60-2.04-5.77-0.86-14.77-2.51-20-3.67-5.23-1.16-11.98-2.83-15-3.7-3.02-0.88-9.1-3.11-13.5-4.97-4.4-1.86-11.15-5.27-15-7.58-3.85-2.3-9.92-6.7-13.5-9.78-3.58-3.08-8.86-8.72-11.75-12.54-2.89-3.82-7-10.31-9.15-14.44-2.15-4.12-5.32-11.55-7.05-16.5-1.74-4.95-4.23-14.4-5.55-21-1.32-6.6-2.87-17.17-3.44-23.5-0.69-7.52-1.06-74.28-1.07-374.5l8.75-1.29c4.82-0.71 17.31-2.62 27.76-4.25 10.45-1.62 28.9-4.49 41-6.36 12.1-1.87 22.56-3.45 23.25-3.5z"/>
</svg>